<?xml version="1.0" encoding="UTF-8" standalone="no"?>
<svg
   xmlns:dc="http://purl.org/dc/elements/1.1/"
   xmlns:cc="http://creativecommons.org/ns#"
   xmlns:rdf="http://www.w3.org/1999/02/22-rdf-syntax-ns#"
   xmlns:svg="http://www.w3.org/2000/svg"
   xmlns="http://www.w3.org/2000/svg"
   xmlns:sodipodi="http://sodipodi.sourceforge.net/DTD/sodipodi-0.dtd"
   xmlns:inkscape="http://www.inkscape.org/namespaces/inkscape"
   version="1.0"
   width="630.85266pt"
   height="545.422pt"
   viewBox="0 0 630.85266 545.422"
   preserveAspectRatio="xMidYMid meet"
   id="svg2"
   inkscape:version="0.91 r13725"
   sodipodi:docname="logotip.svg">
  <metadata
     id="metadata46">
    <rdf:RDF>
      <cc:Work
         rdf:about="">
        <dc:format>image/svg+xml</dc:format>
        <dc:type
           rdf:resource="http://purl.org/dc/dcmitype/StillImage" />
        <dc:title></dc:title>
      </cc:Work>
    </rdf:RDF>
  </metadata>
  <defs
     id="defs44" />
  <sodipodi:namedview
     pagecolor="#ffffff"
     bordercolor="#666666"
     borderopacity="1"
     objecttolerance="10"
     gridtolerance="10"
     guidetolerance="10"
     inkscape:pageopacity="0"
     inkscape:pageshadow="2"
     inkscape:window-width="1536"
     inkscape:window-height="793"
     id="namedview42"
     showgrid="false"
     inkscape:zoom="0.26222222"
     inkscape:cx="-300.19068"
     inkscape:cy="325.55169"
     inkscape:window-x="-8"
     inkscape:window-y="-8"
     inkscape:window-maximized="1"
     inkscape:current-layer="svg2"
     fit-margin-top="0"
     fit-margin-left="0"
     fit-margin-right="0"
     fit-margin-bottom="0" />
  <g
     transform="matrix(0.1,0,0,-0.1,-51,638.87895)"
     id="g4"
     style="fill:#ffffff;fill-opacity:1;stroke:none">
    <path
       d="m 5760,6373 c -134,-24 -293,-76 -590,-193 -603,-238 -838,-312 -1140,-361 -101,-16 -106,-18 -40,-13 108,7 342,56 521,108 160,46 283,89 579,199 238,88 432,150 575,183 104,24 141,28 280,28 183,-1 262,-17 394,-81 114,-55 231,-176 293,-303 58,-118 77,-188 85,-310 11,-177 -43,-345 -158,-488 -27,-34 -125,-127 -217,-206 -186,-160 -257,-231 -354,-356 -102,-133 -184,-269 -284,-475 -120,-250 -209,-473 -314,-790 -48,-143 -92,-261 -98,-261 -7,-1 -55,-2 -107,-3 -74,-1 -95,-4 -95,-15 0,-10 22,-16 83,-21 46,-3 89,-10 96,-14 13,-8 0,-43 -202,-531 -131,-317 -159,-381 -164,-376 -3,2 -88,197 -189,433 -102,235 -187,433 -190,440 -10,21 42,43 119,49 55,5 77,11 77,20 0,8 -10,14 -22,14 -13,0 -138,2 -278,5 -279,7 -382,1 -374,-20 3,-7 27,-16 53,-20 67,-9 106,-36 135,-93 13,-26 75,-162 136,-302 61,-140 122,-277 135,-305 12,-27 41,-93 63,-145 186,-431 188,-435 217,-435 26,0 31,11 142,270 63,149 162,385 219,525 195,475 184,451 218,465 17,7 52,16 79,20 30,5 47,12 47,21 0,11 -16,14 -65,14 -36,0 -65,4 -65,10 0,15 174,534 209,626 l 32,81 97,6 c 60,3 120,13 157,26 112,39 212,137 257,251 26,67 36,220 19,273 -16,47 -48,87 -70,87 -16,0 -19,-13 -24,-117 -10,-236 -93,-391 -245,-460 -61,-29 -172,-43 -172,-23 0,20 118,287 183,415 63,122 176,299 250,390 111,137 222,234 342,300 232,127 367,290 411,496 22,103 14,288 -16,384 -83,261 -261,460 -488,542 -37,14 -100,31 -140,39 -94,18 -292,17 -402,-3 z"
       id="path6"
       style="fill:#ffffff;fill-opacity:1"
       inkscape:connector-curvature="0" />
    <path
       d="m 4705,5829 c -101,-44 -292,-97 -430,-121 -100,-17 -151,-20 -305,-16 -124,2 -170,1 -140,-5 72,-14 347,-13 430,2 158,27 356,87 480,144 77,35 50,32 -35,-4 z"
       id="path8"
       style="fill:#ffffff;fill-opacity:1"
       inkscape:connector-curvature="0" />
    <path
       d="m 5215,5795 c -67,-39 -221,-96 -307,-115 -70,-16 -75,-35 -11,-45 63,-9 109,-54 118,-116 3,-24 5,-395 3,-824 -3,-722 -4,-783 -21,-815 -21,-44 -60,-68 -121,-76 -29,-4 -46,-12 -46,-20 0,-12 57,-14 325,-14 269,0 325,2 325,14 0,9 -17,16 -49,20 -57,7 -98,36 -117,81 -10,25 -13,212 -14,931 -1,852 -4,1015 -19,1013 -3,0 -33,-16 -66,-34 z"
       id="path10"
       style="fill:#ffffff;fill-opacity:1"
       inkscape:connector-curvature="0" />
    <path
       d="m 3793,5793 c 20,-2 54,-2 75,0 20,2 3,4 -38,4 -41,0 -58,-2 -37,-4 z"
       id="path12"
       style="fill:#ffffff;fill-opacity:1"
       inkscape:connector-curvature="0" />
    <path
       d="m 2074,5776 c -149,-34 -273,-132 -336,-266 -50,-105 -60,-155 -67,-315 l -6,-140 -97,-3 -98,-3 0,-34 0,-35 100,0 101,0 -3,-537 c -3,-454 -5,-543 -18,-568 -19,-37 -90,-75 -142,-75 -27,0 -38,-4 -38,-15 0,-13 43,-15 330,-15 272,0 330,2 330,14 0,8 -17,16 -46,20 -61,8 -100,32 -121,76 -16,32 -18,82 -21,567 l -3,532 153,3 153,3 3,32 3,32 -153,3 -153,3 -3,135 c -6,266 24,395 112,486 43,44 60,54 108,65 64,14 124,3 149,-27 12,-14 8,-21 -28,-53 -51,-44 -63,-68 -63,-121 0,-56 20,-91 70,-119 75,-42 168,-13 204,63 46,98 -15,222 -137,276 -62,28 -198,35 -283,16 z"
       id="path14"
       style="fill:#ffffff;fill-opacity:1"
       inkscape:connector-curvature="0" />
    <path
       d="m 3638,5723 c 6,-2 18,-2 25,0 6,3 1,5 -13,5 -14,0 -19,-2 -12,-5 z"
       id="path16"
       style="fill:#ffffff;fill-opacity:1"
       inkscape:connector-curvature="0" />
    <path
       d="m 3688,5713 c 6,-2 18,-2 25,0 6,3 1,5 -13,5 -14,0 -19,-2 -12,-5 z"
       id="path18"
       style="fill:#ffffff;fill-opacity:1"
       inkscape:connector-curvature="0" />
    <path
       d="m 3743,5703 c 9,-2 23,-2 30,0 6,3 -1,5 -18,5 -16,0 -22,-2 -12,-5 z"
       id="path20"
       style="fill:#ffffff;fill-opacity:1"
       inkscape:connector-curvature="0" />
    <path
       d="m 2795,5092 c -204,-53 -366,-204 -439,-412 -39,-111 -48,-294 -21,-415 41,-184 166,-346 327,-424 239,-114 536,-89 693,60 55,52 102,115 92,125 -3,3 -26,-17 -51,-44 -55,-59 -122,-96 -207,-117 -81,-19 -120,-19 -194,0 -95,25 -145,54 -215,124 -103,104 -157,242 -162,416 l -3,80 443,3 443,2 -6,78 c -14,168 -68,302 -157,391 -101,102 -199,141 -363,147 -84,3 -127,0 -180,-14 z m 235,-52 c 106,-54 170,-227 154,-412 l -7,-78 -279,0 -280,0 7,68 c 34,321 221,516 405,422 z"
       id="path22"
       style="fill:#ffffff;fill-opacity:1"
       inkscape:connector-curvature="0" />
    <path
       d="m 4096,5094 c -219,-53 -392,-227 -457,-459 -29,-102 -31,-277 -6,-375 76,-291 299,-473 597,-488 225,-10 399,58 503,199 45,60 30,65 -25,10 -97,-98 -261,-149 -391,-122 -237,48 -393,258 -400,538 l -2,88 443,3 442,2 0,48 c -2,211 -108,412 -266,503 -111,63 -301,86 -438,53 z m 234,-54 c 115,-59 185,-263 154,-452 l -7,-38 -278,0 -279,0 0,38 c 1,61 38,211 69,278 16,35 49,84 72,109 86,93 173,114 269,65 z"
       id="path24"
       style="fill:#ffffff;fill-opacity:1"
       inkscape:connector-curvature="0" />
    <path
       d="m 1388,4553 c 7,-3 16,-2 19,1 4,3 -2,6 -13,5 -11,0 -14,-3 -6,-6 z"
       id="path26"
       style="fill:#ffffff;fill-opacity:1"
       inkscape:connector-curvature="0" />
    <path
       d="m 1245,4533 c -193,-41 -343,-139 -396,-258 -62,-139 -13,-311 107,-381 40,-24 60,-28 133,-30 l 86,-3 -77,8 c -96,11 -153,41 -188,103 -22,37 -25,55 -25,133 0,77 4,98 27,147 62,133 189,224 388,278 79,22 42,24 -55,3 z"
       id="path28"
       style="fill:#ffffff;fill-opacity:1"
       inkscape:connector-curvature="0" />
    <path
       d="m 1188,3873 c 7,-3 16,-2 19,1 4,3 -2,6 -13,5 -11,0 -14,-3 -6,-6 z"
       id="path30"
       style="fill:#ffffff;fill-opacity:1"
       inkscape:connector-curvature="0" />
    <path
       d="m 1286,3099 c -102,-25 -227,-119 -292,-219 l -29,-45 -3,129 c -3,127 -3,128 -25,123 -24,-6 -200,-23 -339,-33 -62,-4 -88,-10 -88,-19 0,-7 17,-15 39,-18 63,-8 94,-28 119,-77 l 23,-45 -3,-510 c -3,-554 -2,-546 -59,-588 -15,-10 -47,-22 -73,-24 -30,-4 -46,-10 -46,-19 0,-12 54,-14 310,-14 269,0 310,2 310,15 0,10 -10,15 -30,15 -43,0 -87,25 -110,63 -19,30 -20,53 -20,467 l 0,435 24,52 c 51,109 163,183 278,183 105,0 184,-70 208,-184 7,-35 10,-201 8,-487 -3,-387 -5,-437 -20,-465 -19,-36 -71,-64 -117,-64 -21,0 -31,-5 -31,-15 0,-13 41,-15 305,-15 264,0 305,2 305,15 0,10 -10,15 -32,15 -18,0 -48,9 -66,20 -62,38 -63,45 -60,513 l 3,422 26,56 c 87,185 316,250 428,123 65,-74 66,-85 66,-589 0,-414 -1,-453 -18,-478 -24,-37 -56,-56 -107,-65 -24,-4 -45,-13 -48,-20 -3,-9 66,-12 312,-12 274,0 316,2 316,15 0,10 -10,15 -30,15 -45,0 -96,25 -117,56 -17,26 -18,65 -24,479 -6,479 -11,531 -60,626 -31,63 -94,124 -152,150 -45,21 -67,24 -162,24 -102,-1 -115,-3 -175,-31 -95,-45 -165,-105 -221,-191 -28,-44 -51,-70 -54,-62 -51,147 -106,220 -197,259 -60,26 -203,37 -272,19 z"
       id="path32"
       style="fill:#ffffff;fill-opacity:1"
       inkscape:connector-curvature="0" />
    <path
       d="m 3290,3070 c -182,-49 -308,-144 -405,-305 -128,-213 -119,-534 21,-747 82,-123 191,-206 339,-255 69,-23 97,-27 205,-27 104,-1 137,3 200,22 112,35 196,86 282,172 129,129 187,279 188,486 0,226 -92,419 -260,545 -119,88 -212,119 -375,125 -98,3 -134,1 -195,-16 z m 303,-57 c 123,-68 201,-232 227,-482 38,-358 -77,-673 -269,-739 -53,-19 -159,-15 -208,8 -172,78 -276,378 -244,708 23,247 93,408 214,494 75,54 193,58 280,11 z"
       id="path34"
       style="fill:#ffffff;fill-opacity:1"
       inkscape:connector-curvature="0" />
    <path
       d="m 5890,3057 c -213,-64 -387,-257 -435,-482 -22,-103 -19,-275 5,-369 58,-227 229,-398 456,-456 100,-26 280,-26 375,-2 l 67,18 15,-46 c 50,-149 9,-298 -118,-425 -196,-197 -532,-233 -1090,-119 -411,84 -655,124 -762,124 -24,0 -42,4 -39,9 13,21 252,122 426,181 113,37 360,102 483,126 48,9 86,19 83,21 -8,8 -233,-37 -415,-82 -216,-55 -398,-116 -565,-192 l -121,-55 -165,-8 c -91,-5 -241,-14 -335,-21 -183,-13 -504,-8 -665,11 -157,18 -333,58 -491,110 -252,83 -417,173 -589,320 -53,46 -70,57 -45,31 106,-113 312,-248 494,-325 410,-172 819,-224 1423,-181 134,9 252,16 261,14 19,-5 -417,-245 -534,-295 -46,-19 -70,-32 -54,-29 66,14 203,75 455,203 l 265,134 145,-12 c 199,-15 393,-43 595,-86 451,-94 529,-105 715,-105 191,0 330,34 446,110 202,131 284,368 199,573 -5,12 2,21 27,33 62,32 135,93 167,141 17,26 29,49 27,52 -3,2 -28,-19 -57,-48 -31,-31 -80,-66 -118,-84 -63,-30 -72,-31 -192,-31 -124,0 -126,0 -200,37 -180,89 -289,288 -289,529 l 0,69 445,0 445,0 0,73 c 0,260 -159,481 -391,542 -85,23 -258,19 -349,-8 z m 251,-31 c 80,-33 137,-112 164,-227 15,-66 19,-186 9,-251 l -7,-38 -284,0 -284,0 7,63 c 16,150 69,293 138,374 68,79 177,112 257,79 z"
       id="path36"
       style="fill:#ffffff;fill-opacity:1"
       inkscape:connector-curvature="0" />
    <path
       d="m 5448,1653 c 7,-3 16,-2 19,1 4,3 -2,6 -13,5 -11,0 -14,-3 -6,-6 z"
       id="path38"
       style="fill:#ffffff;fill-opacity:1"
       inkscape:connector-curvature="0" />
    <path
       d="m 5383,1643 c 9,-2 23,-2 30,0 6,3 -1,5 -18,5 -16,0 -22,-2 -12,-5 z"
       id="path40"
       style="fill:#ffffff;fill-opacity:1"
       inkscape:connector-curvature="0" />
  </g>
</svg>
